<?xml version="1.0" encoding="UTF-8" standalone="no"?>
<!-- Created with Inkscape (http://www.inkscape.org/) -->

<svg
   xmlns:dc="http://purl.org/dc/elements/1.1/"
   xmlns:cc="http://creativecommons.org/ns#"
   xmlns:rdf="http://www.w3.org/1999/02/22-rdf-syntax-ns#"
   xmlns:svg="http://www.w3.org/2000/svg"
   xmlns="http://www.w3.org/2000/svg"
   xmlns:xlink="http://www.w3.org/1999/xlink"
   xmlns:sodipodi="http://sodipodi.sourceforge.net/DTD/sodipodi-0.dtd"
   xmlns:inkscape="http://www.inkscape.org/namespaces/inkscape"
   width="16"
   height="16"
   id="svg4616"
   version="1.1"
   inkscape:version="0.48.3.1 r9886"
   sodipodi:docname="New document 11">
  <defs
     id="defs4618">
    <linearGradient
       inkscape:collect="always"
       xlink:href="#linearGradient5289"
       id="linearGradient5571"
       gradientUnits="userSpaceOnUse"
       gradientTransform="translate(2.162871,-25.405545)"
       x1="-1.2469436"
       y1="63.603642"
       x2="23.527082"
       y2="45.796207" />
    <linearGradient
       inkscape:collect="always"
       id="linearGradient5289">
      <stop
         style="stop-color:#9e0e97;stop-opacity:1;"
         offset="0"
         id="stop5291" />
      <stop
         style="stop-color:#9e0e97;stop-opacity:0;"
         offset="1"
         id="stop5293" />
    </linearGradient>
  </defs>
  <sodipodi:namedview
     id="base"
     pagecolor="#ffffff"
     bordercolor="#666666"
     borderopacity="1.0"
     inkscape:pageopacity="0.0"
     inkscape:pageshadow="2"
     inkscape:zoom="4"
     inkscape:cx="2.2379609"
     inkscape:cy="-42.568361"
     inkscape:document-units="px"
     inkscape:current-layer="layer1"
     showgrid="false"
     fit-margin-top="0"
     fit-margin-left="0"
     fit-margin-right="0"
     fit-margin-bottom="0"
     inkscape:window-width="1440"
     inkscape:window-height="826"
     inkscape:window-x="0"
     inkscape:window-y="25"
     inkscape:window-maximized="1" />
  <metadata
     id="metadata4621">
    <rdf:RDF>
      <cc:Work
         rdf:about="">
        <dc:format>image/svg+xml</dc:format>
        <dc:type
           rdf:resource="http://purl.org/dc/dcmitype/StillImage" />
        <dc:title></dc:title>
      </cc:Work>
    </rdf:RDF>
  </metadata>
  <g
     inkscape:label="Layer 1"
     inkscape:groupmode="layer"
     id="layer1"
     transform="translate(-372.76204,-305.24345)">
    <g
       id="g4336"
       transform="matrix(0.682759,0,0,0.68541379,373.42851,308.30536)">
      <path
         inkscape:connector-curvature="0"
         id="rect3120-1-7-9-3"
         d="m 1.733486,10.277592 c -0.108801,0.01606 -0.203257,0.05938 -0.28125,0.125 -0.623945,0.52495 0.05618,2.466897 1.53125,4.375 l 0.875,1.125 c 0.860459,1.11306 1.778841,1.938957 2.53125,2.34375 l 0,1.96875 c -0.0075,0.146827 -0.03125,0.286637 -0.03125,0.4375 l 0,6.25 c 0,2.413805 0.998678,4.375 2.21875,4.375 1.146534,0 2.078774,-1.727516 2.1875,-3.9375 l 6.34375,0 c 0.140612,2.141854 1.065359,3.78125 2.1875,3.78125 1.220072,0 2.1875,-1.929945 2.1875,-4.34375 l 0,-0.90625 c 0.689283,-0.770192 1.125,-1.786559 1.125,-2.90625 l 0,-4.25 c 0.306034,-0.314492 0.607198,-0.675657 0.90625,-1.0625 l 0.84375,-1.09375 c 1.475072,-1.908103 2.155195,-3.8813 1.53125,-4.40625 -0.623945,-0.52495 -2.306178,0.591897 -3.78125,2.5 -0.725573,-1.404696 -2.178451,-2.375 -3.875,-2.375 l -7.46875,0 c -1.810354,0 -3.366517,1.095129 -4.03125,2.65625 -0.196769,-0.308382 -0.383674,-0.625329 -0.625,-0.9375 l -0.84375,-1.09375 c -1.290688,-1.66959 -2.769646,-2.737455 -3.53125,-2.625 z"
         style="fill:#ff94fa;fill-opacity:1;stroke:#000000;stroke-width:1.46180642;stroke-miterlimit:4;stroke-opacity:1;stroke-dasharray:none" />
      <rect
         inkscape:transform-center-y="-0.71442592"
         inkscape:transform-center-x="12.234544"
         transform="matrix(-0.86063346,-0.50922495,-0.50922495,0.86063346,0,0)"
         ry="2.2923245"
         rx="4.357049"
         y="-12.429855"
         x="-19.759821"
         height="12.561882"
         width="5.1908603"
         id="rect3013-5-6"
         style="fill:#ff94fa;fill-opacity:1;stroke:#000000;stroke-width:1.46180642;stroke-miterlimit:4;stroke-opacity:1;stroke-dasharray:none" />
      <rect
         transform="matrix(0.86063346,-0.50922495,0.50922495,0.86063346,0,0)"
         ry="2.2923245"
         rx="4.357049"
         y="1.2454834"
         x="3.8623438"
         height="12.561882"
         width="5.1908603"
         id="rect3013-4"
         style="fill:#ff94fa;fill-opacity:1;stroke:#000000;stroke-width:1.46180642;stroke-miterlimit:4;stroke-opacity:1;stroke-dasharray:none" />
      <rect
         inkscape:transform-center-y="-0.36348258"
         inkscape:transform-center-x="-6.2246407"
         transform="matrix(0.86063346,-0.50922495,0.50922495,0.86063346,0,0)"
         ry="2.2923245"
         rx="4.357049"
         y="5.4130821"
         x="4.8312502"
         height="6.3911815"
         width="2.6409841"
         id="rect3013-5-1-7-6"
         style="fill:#eeeeec;fill-opacity:1;stroke:none" />
      <rect
         inkscape:transform-center-y="-0.36818697"
         inkscape:transform-center-x="6.3051899"
         transform="matrix(-0.86063346,-0.50922495,-0.50922495,0.86063346,0,0)"
         ry="2.2923245"
         rx="4.357049"
         y="-9.2265635"
         x="-18.438025"
         height="6.4738851"
         width="2.6751592"
         id="rect3013-5-1-1"
         style="fill:#eeeeec;fill-opacity:1;stroke:none" />
      <path
         inkscape:connector-curvature="0"
         id="rect3120-1-7-9-3-9"
         d="m 1.302293,9.894714 c -0.108801,0.01606 -0.203257,0.05938 -0.28125,0.125 -0.623945,0.52495 0.05618,2.466897 1.53125,4.375 l 0.875,1.125 c 0.860459,1.11306 1.778841,1.938957 2.53125,2.34375 l 0,1.96875 c -0.0075,0.146827 -0.03125,0.286637 -0.03125,0.4375 l 0,6.249999 c 0,2.413805 0.998678,4.375 2.21875,4.375 1.146534,0 2.078774,-1.727516 2.1875,-3.9375 l 6.34375,0 c 0.140612,2.141854 1.065359,3.78125 2.1875,3.78125 1.220072,0 2.1875,-1.929945 2.1875,-4.34375 l 0,-0.90625 c 0.689283,-0.770192 1.125,-1.786559 1.125,-2.90625 l 0,-4.249999 c 0.306034,-0.314492 0.607198,-0.675657 0.90625,-1.0625 l 0.84375,-1.09375 c 1.475072,-1.908103 2.155195,-3.8813 1.53125,-4.40625 -0.623945,-0.52495 -2.306178,0.591897 -3.78125,2.5 -0.725573,-1.404696 -2.178451,-2.375 -3.875,-2.375 l -7.46875,0 c -1.810354,0 -3.366517,1.095129 -4.03125,2.65625 -0.196769,-0.308382 -0.383674,-0.625329 -0.625,-0.9375 l -0.84375,-1.09375 c -1.290688,-1.66959 -2.769646,-2.737455 -3.53125,-2.625 z"
         style="opacity:0.70506915;fill:url(#linearGradient5571);fill-opacity:1;stroke:none" />
      <rect
         ry="4.357049"
         rx="4.357049"
         y="14.938712"
         x="8.8377161"
         height="10.51947"
         width="10.029058"
         id="rect3053-4-2"
         style="fill:#eeeeec;fill-opacity:1;stroke:#800072;stroke-width:1.46180642;stroke-miterlimit:4;stroke-opacity:1;stroke-dasharray:none" />
      <rect
         ry="0"
         rx="4.357049"
         y="13.726478"
         x="11.155313"
         height="4.5679569"
         width="2.8030643"
         id="rect3033-6"
         style="fill:#eeeeec;fill-opacity:1;stroke:#000000;stroke-width:1.46180642;stroke-miterlimit:4;stroke-opacity:1;stroke-dasharray:none" />
      <path
         transform="matrix(1.1625245,0,0,1.1625245,-0.991301,-4.579574)"
         d="m 13.127577,12.7105 c 0,1.82487 -1.259447,3.30422 -2.813052,3.30422 -1.5536062,0 -2.8130525,-1.47935 -2.8130525,-3.30422 0,-1.824871 1.2594463,-3.3042202 2.8130525,-3.3042202 1.553605,0 2.813052,1.4793492 2.813052,3.3042202 z"
         sodipodi:ry="3.30422"
         sodipodi:rx="2.8130522"
         sodipodi:cy="12.7105"
         sodipodi:cx="10.314525"
         id="path2993-3"
         style="fill:#eeeeec;fill-opacity:1;stroke:#000000;stroke-width:1.2574414;stroke-miterlimit:4;stroke-opacity:1;stroke-dasharray:none"
         sodipodi:type="arc" />
      <rect
         ry="0"
         rx="4.357049"
         y="13.830298"
         x="13.698834"
         height="4.5679569"
         width="2.8030643"
         id="rect3033-0-8"
         style="fill:#eeeeec;fill-opacity:1;stroke:#000000;stroke-width:1.46180642;stroke-miterlimit:4;stroke-opacity:1;stroke-dasharray:none" />
      <path
         d="m 13.127577,12.7105 c 0,1.82487 -1.259447,3.30422 -2.813052,3.30422 -1.5536062,0 -2.8130525,-1.47935 -2.8130525,-3.30422 0,-1.824871 1.2594463,-3.3042202 2.8130525,-3.3042202 1.553605,0 2.813052,1.4793492 2.813052,3.3042202 z"
         sodipodi:ry="3.30422"
         sodipodi:rx="2.8130522"
         sodipodi:cy="12.7105"
         sodipodi:cx="10.314525"
         id="path2993-1-31"
         style="fill:#eeeeec;fill-opacity:1;stroke:#000000;stroke-width:0.9880743;stroke-miterlimit:4;stroke-opacity:1;stroke-dasharray:none"
         sodipodi:type="arc"
         transform="matrix(1.6287887,0,0,1.3438035,0.613595,-7.067438)" />
      <path
         d="m 13.127577,12.7105 c 0,1.82487 -1.259447,3.30422 -2.813052,3.30422 -1.5536062,0 -2.8130525,-1.47935 -2.8130525,-3.30422 0,-1.824871 1.2594463,-3.3042202 2.8130525,-3.3042202 1.553605,0 2.813052,1.4793492 2.813052,3.3042202 z"
         sodipodi:ry="3.30422"
         sodipodi:rx="2.8130522"
         sodipodi:cy="12.7105"
         sodipodi:cx="10.314525"
         id="path2993-1-3-9"
         style="fill:#000000;fill-opacity:1;stroke:none"
         sodipodi:type="arc"
         transform="matrix(0.46080916,0,0,0.46376122,5.748914,4.406884)" />
      <path
         d="m 13.127577,12.7105 c 0,1.82487 -1.259447,3.30422 -2.813052,3.30422 -1.5536062,0 -2.8130525,-1.47935 -2.8130525,-3.30422 0,-1.824871 1.2594463,-3.3042202 2.8130525,-3.3042202 1.553605,0 2.813052,1.4793492 2.813052,3.3042202 z"
         sodipodi:ry="3.30422"
         sodipodi:rx="2.8130522"
         sodipodi:cy="12.7105"
         sodipodi:cx="10.314525"
         id="path2993-1-3-5-6"
         style="fill:#000000;fill-opacity:1;stroke:none"
         sodipodi:type="arc"
         transform="matrix(0.46080916,0,0,0.46376122,12.272366,4.400374)" />
    </g>
  </g>
</svg>
