<?xml version="1.0" encoding="UTF-8" standalone="no"?>
<!-- Created with Inkscape (http://www.inkscape.org/) -->

<svg
   xmlns:dc="http://purl.org/dc/elements/1.1/"
   xmlns:cc="http://creativecommons.org/ns#"
   xmlns:rdf="http://www.w3.org/1999/02/22-rdf-syntax-ns#"
   xmlns:svg="http://www.w3.org/2000/svg"
   xmlns="http://www.w3.org/2000/svg"
   xmlns:sodipodi="http://sodipodi.sourceforge.net/DTD/sodipodi-0.dtd"
   xmlns:inkscape="http://www.inkscape.org/namespaces/inkscape"
   width="320"
   height="480"
   id="svg6449"
   version="1.1"
   inkscape:version="0.48.3.1 r9886"
   sodipodi:docname="rotate.svg"
   inkscape:export-filename="/store/public_html/arcade/rabid/media/o.png"
   inkscape:export-xdpi="90"
   inkscape:export-ydpi="90">
  <defs
     id="defs6451" />
  <sodipodi:namedview
     id="base"
     pagecolor="#ffffff"
     bordercolor="#666666"
     borderopacity="1.0"
     inkscape:pageopacity="0.0"
     inkscape:pageshadow="2"
     inkscape:zoom="0.98994949"
     inkscape:cx="-119.28571"
     inkscape:cy="283.82077"
     inkscape:document-units="px"
     inkscape:current-layer="layer1"
     showgrid="false"
     fit-margin-top="0"
     fit-margin-left="0"
     fit-margin-right="0"
     fit-margin-bottom="0"
     showguides="true"
     inkscape:guide-bbox="true"
     inkscape:window-width="1440"
     inkscape:window-height="826"
     inkscape:window-x="0"
     inkscape:window-y="25"
     inkscape:window-maximized="1" />
  <metadata
     id="metadata6454">
    <rdf:RDF>
      <cc:Work
         rdf:about="">
        <dc:format>image/svg+xml</dc:format>
        <dc:type
           rdf:resource="http://purl.org/dc/dcmitype/StillImage" />
        <dc:title></dc:title>
      </cc:Work>
    </rdf:RDF>
  </metadata>
  <g
     inkscape:label="Layer 1"
     inkscape:groupmode="layer"
     id="layer1"
     transform="translate(-494.28571,-449.50504)">
    <rect
       style="fill:#4e9a06;fill-opacity:1;stroke:none"
       id="rect6749"
       width="320"
       height="480"
       x="94.285713"
       y="449.50504"
       inkscape:export-filename="/store/public_html/arcade/rabid/media/o.png"
       inkscape:export-xdpi="90"
       inkscape:export-ydpi="90" />
    <g
       id="g5595"
       transform="translate(438.3692,605.90907)">
      <rect
         transform="matrix(0.64379317,0.76519955,0.79115885,-0.61161072,0,0)"
         ry="4.3533969"
         rx="4.3532639"
         y="-59.933945"
         x="-49.174438"
         height="8.6867943"
         width="2.5321503"
         id="rect3120-1-7-9-6-9"
         style="fill:#8f5902;fill-opacity:1;stroke:#000000;stroke-width:1.0004276;stroke-miterlimit:4;stroke-opacity:1;stroke-dasharray:none" />
      <rect
         transform="matrix(-0.81990467,0.57250007,-0.60590426,-0.79553757,0,0)"
         ry="4.3533969"
         rx="4.3532639"
         y="30.46953"
         x="45.110931"
         height="8.6867943"
         width="2.5321503"
         id="rect3120-1-7-0-3"
         style="fill:#8f5902;fill-opacity:1;stroke:#000000;stroke-width:1.0004276;stroke-miterlimit:4;stroke-opacity:1;stroke-dasharray:none" />
      <rect
         ry="4.357049"
         rx="4.357049"
         y="-3.1441562"
         x="-64.043488"
         height="12.881973"
         width="3.7888157"
         id="rect3120-1-5-9"
         style="fill:#8f5902;fill-opacity:1;stroke:#000000;stroke-width:1;stroke-miterlimit:4;stroke-opacity:1;stroke-dasharray:none" />
      <rect
         ry="4.357049"
         rx="4.357049"
         y="-3.0178611"
         x="-73.262939"
         height="12.881973"
         width="3.7888157"
         id="rect3120-2-8"
         style="fill:#8f5902;fill-opacity:1;stroke:#000000;stroke-width:1;stroke-miterlimit:4;stroke-opacity:1;stroke-dasharray:none" />
      <rect
         ry="4.357049"
         rx="4.357049"
         y="-4.4810109"
         x="-73.234467"
         height="12.94897"
         width="13.931306"
         id="rect3053-6-8"
         style="fill:#8f5902;fill-opacity:1;stroke:#000000;stroke-width:1;stroke-miterlimit:4;stroke-opacity:1;stroke-dasharray:none" />
      <rect
         inkscape:transform-center-y="-0.71442592"
         inkscape:transform-center-x="12.234544"
         transform="matrix(-0.86063345,-0.50922496,-0.50922496,0.86063345,0,0)"
         ry="2.2923245"
         rx="4.357049"
         y="16.460621"
         x="58.424728"
         height="10.805692"
         width="4.4651618"
         id="rect3013-5-5-8"
         style="fill:#8f5902;fill-opacity:1;stroke:#000000;stroke-width:1;stroke-miterlimit:4;stroke-opacity:1;stroke-dasharray:none" />
      <rect
         transform="matrix(0.86063345,-0.50922496,0.50922496,0.86063345,0,0)"
         ry="2.2923245"
         rx="4.357049"
         y="-51.966206"
         x="-56.783997"
         height="10.805692"
         width="4.4651618"
         id="rect3013-6-7"
         style="fill:#8f5902;fill-opacity:1;stroke:#000000;stroke-width:1;stroke-miterlimit:4;stroke-opacity:1;stroke-dasharray:none" />
      <rect
         inkscape:transform-center-y="-0.47910076"
         inkscape:transform-center-x="-8.2045995"
         transform="matrix(0.86063345,-0.50922496,0.50922496,0.86063345,0,0)"
         ry="2.2923245"
         rx="4.357049"
         y="-49.348839"
         x="-56.193577"
         height="7.246397"
         width="2.9943788"
         id="rect3013-5-1-7-0-4"
         style="fill:#eeeeec;fill-opacity:1;stroke:none" />
      <path
         transform="translate(-79.590322,-18.977575)"
         d="m 13.127577,12.7105 c 0,1.82487 -1.259447,3.30422 -2.813052,3.30422 -1.5536062,0 -2.8130525,-1.47935 -2.8130525,-3.30422 0,-1.824871 1.2594463,-3.3042202 2.8130525,-3.3042202 1.553605,0 2.813052,1.4793492 2.813052,3.3042202 z"
         sodipodi:ry="3.30422"
         sodipodi:rx="2.8130522"
         sodipodi:cy="12.7105"
         sodipodi:cx="10.314525"
         id="path2993-6-6"
         style="fill:#eeeeec;fill-opacity:1;stroke:#000000;stroke-width:1;stroke-miterlimit:4;stroke-opacity:1;stroke-dasharray:none"
         sodipodi:type="arc" />
      <rect
         inkscape:transform-center-y="-0.47910074"
         inkscape:transform-center-x="8.2045991"
         transform="matrix(-0.86063345,-0.50922496,-0.50922496,0.86063345,0,0)"
         ry="2.2923245"
         rx="4.357049"
         y="18.60915"
         x="59.175613"
         height="7.246397"
         width="2.9943788"
         id="rect3013-5-1-3-2"
         style="fill:#eeeeec;fill-opacity:1;stroke:none" />
      <path
         d="m 13.127577,12.7105 c 0,1.82487 -1.259447,3.30422 -2.813052,3.30422 -1.5536062,0 -2.8130525,-1.47935 -2.8130525,-3.30422 0,-1.824871 1.2594463,-3.3042202 2.8130525,-3.3042202 1.553605,0 2.813052,1.4793492 2.813052,3.3042202 z"
         sodipodi:ry="3.30422"
         sodipodi:rx="2.8130522"
         sodipodi:cy="12.7105"
         sodipodi:cx="10.314525"
         id="path2993-1-8-4"
         style="fill:#eeeeec;fill-opacity:1;stroke:#000000;stroke-width:0.70763826;stroke-miterlimit:4;stroke-opacity:1;stroke-dasharray:none"
         sodipodi:type="arc"
         transform="matrix(1.5555555,0,0,1.2837838,-79.694509,-23.16508)" />
      <rect
         ry="4.357049"
         rx="4.357049"
         y="-2.1880043"
         x="-71.135429"
         height="9.9179173"
         width="8.6269646"
         id="rect3053-4-3-7"
         style="fill:#eeeeec;fill-opacity:1;stroke:#000000;stroke-width:1;stroke-miterlimit:4;stroke-opacity:1;stroke-dasharray:none" />
      <rect
         ry="0"
         rx="4.357049"
         y="-3.2307642"
         x="-69.141846"
         height="3.9293425"
         width="2.4111874"
         id="rect3033-7-1"
         style="fill:#eeeeec;fill-opacity:1;stroke:#000000;stroke-width:1;stroke-miterlimit:4;stroke-opacity:1;stroke-dasharray:none" />
      <rect
         ry="0"
         rx="4.357049"
         y="-3.1414602"
         x="-66.953911"
         height="3.9293425"
         width="2.4111874"
         id="rect3033-0-9-9"
         style="fill:#eeeeec;fill-opacity:1;stroke:#000000;stroke-width:1;stroke-miterlimit:4;stroke-opacity:1;stroke-dasharray:none" />
      <path
         d="m 13.127577,12.7105 c 0,1.82487 -1.259447,3.30422 -2.813052,3.30422 -1.5536062,0 -2.8130525,-1.47935 -2.8130525,-3.30422 0,-1.824871 1.2594463,-3.3042202 2.8130525,-3.3042202 1.553605,0 2.813052,1.4793492 2.813052,3.3042202 z"
         sodipodi:ry="3.30422"
         sodipodi:rx="2.8130522"
         sodipodi:cy="12.7105"
         sodipodi:cx="10.314525"
         id="path2993-1-3-7-4"
         style="fill:#000000;fill-opacity:1;stroke:none"
         sodipodi:type="arc"
         transform="matrix(0.4780595,0,0,0.48112207,-74.405077,-11.313554)" />
      <path
         d="m 13.127577,12.7105 c 0,1.82487 -1.259447,3.30422 -2.813052,3.30422 -1.5536062,0 -2.8130525,-1.47935 -2.8130525,-3.30422 0,-1.824871 1.2594463,-3.3042202 2.8130525,-3.3042202 1.553605,0 2.813052,1.4793492 2.813052,3.3042202 z"
         sodipodi:ry="3.30422"
         sodipodi:rx="2.8130522"
         sodipodi:cy="12.7105"
         sodipodi:cx="10.314525"
         id="path2993-1-3-0-6-8"
         style="fill:#000000;fill-opacity:1;stroke:none"
         sodipodi:type="arc"
         transform="matrix(0.4780595,0,0,0.48112207,-69.457948,-11.365866)" />
    </g>
    <rect
       style="fill:#8f5902;fill-opacity:1;stroke:#000000;stroke-width:1.00043333;stroke-miterlimit:4;stroke-opacity:1;stroke-dasharray:none"
       id="rect3120-1-7-9-6-9-8"
       width="5.5477171"
       height="19.033138"
       x="883.56543"
       y="-6.9376264"
       rx="4.3532639"
       ry="4.3533969"
       transform="matrix(0.64389998,0.76510967,0.79124271,-0.61150223,0,0)" />
    <rect
       style="fill:#8f5902;fill-opacity:1;stroke:#000000;stroke-width:1.00043321;stroke-miterlimit:4;stroke-opacity:1;stroke-dasharray:none"
       id="rect3120-1-7-0-3-8"
       width="5.5481224"
       height="19.031742"
       x="903.87781"
       y="-121.04488"
       rx="4.3532643"
       ry="4.3533964"
       transform="matrix(0.57239101,0.81998081,-0.79545479,0.60601293,0,0)" />
    <rect
       style="fill:#8f5902;fill-opacity:1;stroke:#000000;stroke-width:0.99999994;stroke-miterlimit:4;stroke-opacity:1;stroke-dasharray:none"
       id="rect3120-1-5-9-3"
       width="8.3023376"
       height="28.21995"
       x="596.37756"
       y="675.50842"
       rx="4.357049"
       ry="4.357049" />
    <rect
       style="fill:#8f5902;fill-opacity:1;stroke:#000000;stroke-width:0.99999994;stroke-miterlimit:4;stroke-opacity:1;stroke-dasharray:none"
       id="rect3120-2-8-8"
       width="8.3023376"
       height="28.21995"
       x="576.17523"
       y="675.7851"
       rx="4.357049"
       ry="4.357049" />
    <rect
       style="fill:#8f5902;fill-opacity:1;stroke:#000000;stroke-width:0.99999994;stroke-miterlimit:4;stroke-opacity:1;stroke-dasharray:none"
       id="rect3053-6-8-9"
       width="30.527323"
       height="28.366714"
       x="576.23761"
       y="672.57983"
       rx="4.357049"
       ry="4.357049" />
    <rect
       style="fill:#8f5902;fill-opacity:1;stroke:#000000;stroke-width:0.99999994;stroke-miterlimit:4;stroke-opacity:1;stroke-dasharray:none"
       id="rect3013-5-5-8-8"
       width="9.783679"
       height="23.673275"
       x="-853.54541"
       y="248.32365"
       rx="4.357049"
       ry="2.2923245"
       transform="matrix(-0.86069668,-0.50911809,-0.50933186,0.86057019,0,0)"
       inkscape:transform-center-x="12.234544"
       inkscape:transform-center-y="-0.71442592" />
    <rect
       style="fill:#8f5902;fill-opacity:1;stroke:#000000;stroke-width:0.99999994;stroke-miterlimit:4;stroke-opacity:1;stroke-dasharray:none"
       id="rect3013-6-7-5"
       width="9.783679"
       height="23.673275"
       x="162.00819"
       y="848.56244"
       rx="4.357049"
       ry="2.2923245"
       transform="matrix(0.86069668,-0.50911809,0.50933186,0.86057019,0,0)" />
    <rect
       style="fill:#eeeeec;fill-opacity:1;stroke:none"
       id="rect3013-5-1-7-0-4-2"
       width="6.5610256"
       height="15.875517"
       x="163.30186"
       y="854.29663"
       rx="4.357049"
       ry="2.2923245"
       transform="matrix(0.86069668,-0.50911809,0.50933186,0.86057019,0,0)"
       inkscape:transform-center-x="-8.2045995"
       inkscape:transform-center-y="-0.47910076" />
    <path
       sodipodi:type="arc"
       style="fill:#eeeeec;fill-opacity:1;stroke:#000000;stroke-width:0.45641994;stroke-miterlimit:4;stroke-opacity:1;stroke-dasharray:none"
       id="path2993-6-6-0"
       sodipodi:cx="10.314525"
       sodipodi:cy="12.7105"
       sodipodi:rx="2.8130522"
       sodipodi:ry="3.30422"
       d="m 13.127577,12.7105 a 2.8130522,3.30422 0 1 1 -5.6261045,0 2.8130522,3.30422 0 1 1 5.6261045,0 z"
       transform="matrix(2.1912751,0,0,2.1906542,562.31017,640.82288)" />
    <rect
       style="fill:#eeeeec;fill-opacity:1;stroke:none"
       id="rect3013-5-1-3-2-5"
       width="6.5610256"
       height="15.875517"
       x="-851.90015"
       y="253.03069"
       rx="4.357049"
       ry="2.2923245"
       transform="matrix(-0.86069668,-0.50911809,-0.50933186,0.86057019,0,0)"
       inkscape:transform-center-x="8.2045991"
       inkscape:transform-center-y="-0.47910074" />
    <path
       transform="matrix(3.40865,0,0,2.8123264,562.08187,631.6495)"
       sodipodi:type="arc"
       style="fill:#eeeeec;fill-opacity:1;stroke:#000000;stroke-width:0.32298023;stroke-miterlimit:4;stroke-opacity:1;stroke-dasharray:none"
       id="path2993-1-8-4-6"
       sodipodi:cx="10.314525"
       sodipodi:cy="12.7105"
       sodipodi:rx="2.8130522"
       sodipodi:ry="3.30422"
       d="m 13.127577,12.7105 a 2.8130522,3.30422 0 1 1 -5.6261045,0 2.8130522,3.30422 0 1 1 5.6261045,0 z" />
    <rect
       style="fill:#eeeeec;fill-opacity:1;stroke:#000000;stroke-width:0.99999994;stroke-miterlimit:4;stroke-opacity:1;stroke-dasharray:none"
       id="rect3053-4-3-7-0"
       width="18.904053"
       height="21.726727"
       x="580.83716"
       y="677.60303"
       rx="4.357049"
       ry="4.357049" />
    <rect
       style="fill:#eeeeec;fill-opacity:1;stroke:#000000;stroke-width:0.99999994;stroke-miterlimit:4;stroke-opacity:1;stroke-dasharray:none"
       id="rect3033-7-1-8"
       width="5.2835751"
       height="8.607831"
       x="585.20563"
       y="675.31866"
       rx="4.357049"
       ry="0" />
    <rect
       style="fill:#eeeeec;fill-opacity:1;stroke:#000000;stroke-width:0.99999994;stroke-miterlimit:4;stroke-opacity:1;stroke-dasharray:none"
       id="rect3033-0-9-9-7"
       width="5.2835751"
       height="8.607831"
       x="590"
       y="675.51434"
       rx="4.357049"
       ry="0" />
    <path
       transform="matrix(1.0475599,0,0,1.0539721,573.67247,656.09687)"
       sodipodi:type="arc"
       style="fill:#000000;fill-opacity:1;stroke:none"
       id="path2993-1-3-7-4-2"
       sodipodi:cx="10.314525"
       sodipodi:cy="12.7105"
       sodipodi:rx="2.8130522"
       sodipodi:ry="3.30422"
       d="m 13.127577,12.7105 a 2.8130522,3.30422 0 1 1 -5.6261045,0 2.8130522,3.30422 0 1 1 5.6261045,0 z" />
    <path
       transform="matrix(1.0475599,0,0,1.0539721,587.03837,655.47719)"
       sodipodi:type="arc"
       style="fill:#000000;fill-opacity:1;stroke:none"
       id="path2993-1-3-0-6-8-6"
       sodipodi:cx="10.314525"
       sodipodi:cy="12.7105"
       sodipodi:rx="2.8130522"
       sodipodi:ry="3.30422"
       d="m 13.127577,12.7105 a 2.8130522,3.30422 0 1 1 -5.6261045,0 2.8130522,3.30422 0 1 1 5.6261045,0 z" />
    <g
       id="g10475"
       transform="matrix(2.363376,0,0,2.4048372,-167.72858,-718.39482)"
       style="opacity:0.2;fill:#fffff0;fill-opacity:1">
      <path
         id="path1002"
         d="m 364.91409,547.76655 c -3.817,5.323 -10.052,8.801 -17.089,8.801 -11.55,0 -20.952,-9.364 -21.019,-20.898 h 2.471 4.387 l -10.918,-10.876 -10.898,10.876 h 5.764 0.161 0.948 c 0.067,16.018 13.07,28.984 29.104,28.984 9.285,0 17.547,-4.352 22.878,-11.121 l -2.381,-2.372 -3.408,-3.394 z"
         inkscape:connector-curvature="0"
         style="fill:#fffff0;fill-opacity:1" />
      <path
         id="path1004"
         d="m 379.29009,535.70255 0,0.002 h -2.357 c 0,-0.001 0,-0.001 0,-0.002 0,-0.053 0,-0.104 0,-0.157 0,-16.076 -13.032,-29.108 -29.108,-29.108 -9.359,0 -17.684,4.424 -23.007,11.289 l 2.479,2.471 3.314,3.302 c 3.807,-5.423 10.101,-8.977 17.213,-8.977 11.593,0 21.023,9.431 21.023,21.022 0,0.052 -0.01,0.104 -0.01,0.157 0,10e-4 0,10e-4 0,0.002 h -2.562 l 0,-0.002 h -4.312 l 10.918,10.876 10.898,-10.876 h -4.493 z"
         inkscape:connector-curvature="0"
         style="fill:#fffff0;fill-opacity:1" />
    </g>
  </g>
</svg>
